<svg xmlns="http://www.w3.org/2000/svg" width="988.6" height="1001.825" viewBox="0 0 988.6 1001.825">
	<!-- Generated by PyTermGUI -->
	<style type="text/css">
        text.ptg {
            font-size: 15px;
            font-family: Menlo, 'DejaVu Sans Mono', consolas, 'Courier New', monospace;
            font-feature-settings: normal;
            /* Inline SVGs are `antialiased` by default, while `src=`-d ones are `auto`.*/
            -webkit-font-smoothing: auto;
        }
        .ptg-title {
            font-family: 'arial';
            fill: #94999A;
            font-size: 13px;
            font-weight: bold;
        }
        .ptg-0 {font-weight: bold; fill:#656873}
        .ptg-1 {opacity: 0.7; fill:#f2f2f2}
        .ptg-2 {fill:#656873}
    </style>
	<g>
		<rect x="0" y="20" rx="9px" ry="9px" stroke-width="1px" stroke-linejoin="round" width="988.6" height="961.825" fill="#141414"/>
		<circle cx="15" cy="35" r="6" fill="#ff6159"/>
		<circle cx="35" cy="35" r="6" fill="#ffbd2e"/>
		<circle cx="55" cy="35" r="6" fill="#28c941"/>
		<text x="494.0" y="38.975" text-anchor="middle" class="ptg-title">cmd.py</text>
	</g>
	<g transform="translate(20, 55)">
		<rect x="-0.7" y="0.75" fill="#252830" width="104.35" height="20.49"/>
		<text dy="-0.25em" x="-0.7" y="18.98" textLength="102.3" class="ptg ptg-0">  PyTermGUI</text>
		<rect x="101.6" y="0.75" fill="#252830" width="9.49" height="20.49"/>
		<text dy="-0.25em" x="101.6" y="18.98" textLength="9.3" class="ptg ptg-0"> </text>
		<rect x="110.9" y="0.75" fill="#252830" width="9.49" height="20.49"/>
		<text dy="-0.25em" x="110.9" y="18.98" textLength="9.3" class="ptg ptg-0"> </text>
		<rect x="120.2" y="0.75" fill="#252830" width="9.49" height="20.49"/>
		<text dy="-0.25em" x="120.2" y="18.98" textLength="9.3" class="ptg ptg-0"> </text>
		<rect x="129.5" y="0.75" fill="#252830" width="9.49" height="20.49"/>
		<text dy="-0.25em" x="129.5" y="18.98" textLength="9.3" class="ptg ptg-0"> </text>
		<rect x="138.8" y="0.75" fill="#252830" width="9.49" height="20.49"/>
		<text dy="-0.25em" x="138.8" y="18.98" textLength="9.3" class="ptg ptg-0"> </text>
		<rect x="148.1" y="0.75" fill="#252830" width="9.49" height="20.49"/>
		<text dy="-0.25em" x="148.1" y="18.98" textLength="9.3" class="ptg ptg-0"> </text>
		<rect x="157.4" y="0.75" fill="#252830" width="9.49" height="20.49"/>
		<text dy="-0.25em" x="157.4" y="18.98" textLength="9.3" class="ptg ptg-0"> </text>
		<rect x="166.7" y="0.75" fill="#252830" width="9.49" height="20.49"/>
		<text dy="-0.25em" x="166.7" y="18.98" textLength="9.3" class="ptg ptg-0"> </text>
		<rect x="176.0" y="0.75" fill="#252830" width="9.49" height="20.49"/>
		<text dy="-0.25em" x="176.0" y="18.98" textLength="9.3" class="ptg ptg-0"> </text>
		<rect x="185.3" y="0.75" fill="#252830" width="9.49" height="20.49"/>
		<text dy="-0.25em" x="185.3" y="18.98" textLength="9.3" class="ptg ptg-0"> </text>
		<rect x="194.6" y="0.75" fill="#252830" width="9.49" height="20.49"/>
		<text dy="-0.25em" x="194.6" y="18.98" textLength="9.3" class="ptg ptg-0"> </text>
		<rect x="203.9" y="0.75" fill="#252830" width="9.49" height="20.49"/>
		<text dy="-0.25em" x="203.9" y="18.98" textLength="9.3" class="ptg ptg-0"> </text>
		<rect x="213.2" y="0.75" fill="#252830" width="9.49" height="20.49"/>
		<text dy="-0.25em" x="213.2" y="18.98" textLength="9.3" class="ptg ptg-0"> </text>
		<rect x="222.5" y="0.75" fill="#252830" width="9.49" height="20.49"/>
		<text dy="-0.25em" x="222.5" y="18.98" textLength="9.3" class="ptg ptg-0"> </text>
		<rect x="231.8" y="0.75" fill="#252830" width="9.49" height="20.49"/>
		<text dy="-0.25em" x="231.8" y="18.98" textLength="9.3" class="ptg ptg-0"> </text>
		<rect x="241.1" y="0.75" fill="#252830" width="9.49" height="20.49"/>
		<text dy="-0.25em" x="241.1" y="18.98" textLength="9.3" class="ptg ptg-0"> </text>
		<rect x="250.4" y="0.75" fill="#252830" width="9.49" height="20.49"/>
		<text dy="-0.25em" x="250.4" y="18.98" textLength="9.3" class="ptg ptg-0"> </text>
		<rect x="259.7" y="0.75" fill="#252830" width="9.49" height="20.49"/>
		<text dy="-0.25em" x="259.7" y="18.98" textLength="9.3" class="ptg ptg-0"> </text>
		<rect x="269.0" y="0.75" fill="#252830" width="9.49" height="20.49"/>
		<text dy="-0.25em" x="269.0" y="18.98" textLength="9.3" class="ptg ptg-0"> </text>
		<rect x="278.3" y="0.75" fill="#252830" width="9.49" height="20.49"/>
		<text dy="-0.25em" x="278.3" y="18.98" textLength="9.3" class="ptg ptg-0"> </text>
		<rect x="287.6" y="0.75" fill="#252830" width="9.49" height="20.49"/>
		<text dy="-0.25em" x="287.6" y="18.98" textLength="9.3" class="ptg ptg-0"> </text>
		<rect x="296.9" y="0.75" fill="#252830" width="9.49" height="20.49"/>
		<text dy="-0.25em" x="296.9" y="18.98" textLength="9.3" class="ptg ptg-0"> </text>
		<rect x="306.2" y="0.75" fill="#252830" width="9.49" height="20.49"/>
		<text dy="-0.25em" x="306.2" y="18.98" textLength="9.3" class="ptg ptg-0"> </text>
		<rect x="315.5" y="0.75" fill="#252830" width="9.49" height="20.49"/>
		<text dy="-0.25em" x="315.5" y="18.98" textLength="9.3" class="ptg ptg-0"> </text>
		<rect x="324.8" y="0.75" fill="#252830" width="9.49" height="20.49"/>
		<text dy="-0.25em" x="324.8" y="18.98" textLength="9.3" class="ptg ptg-0"> </text>
		<rect x="334.1" y="0.75" fill="#252830" width="9.49" height="20.49"/>
		<text dy="-0.25em" x="334.1" y="18.98" textLength="9.3" class="ptg ptg-0"> </text>
		<rect x="343.4" y="0.75" fill="#252830" width="9.49" height="20.49"/>
		<text dy="-0.25em" x="343.4" y="18.98" textLength="9.3" class="ptg ptg-0"> </text>
		<rect x="352.7" y="0.75" fill="#252830" width="9.49" height="20.49"/>
		<text dy="-0.25em" x="352.7" y="18.98" textLength="9.3" class="ptg ptg-0"> </text>
		<rect x="362.0" y="0.75" fill="#252830" width="9.49" height="20.49"/>
		<text dy="-0.25em" x="362.0" y="18.98" textLength="9.3" class="ptg ptg-0"> </text>
		<rect x="371.3" y="0.75" fill="#252830" width="9.49" height="20.49"/>
		<text dy="-0.25em" x="371.3" y="18.98" textLength="9.3" class="ptg ptg-0"> </text>
		<rect x="380.6" y="0.75" fill="#252830" width="9.49" height="20.49"/>
		<text dy="-0.25em" x="380.6" y="18.98" textLength="9.3" class="ptg ptg-0"> </text>
		<rect x="389.9" y="0.75" fill="#252830" width="9.49" height="20.49"/>
		<text dy="-0.25em" x="389.9" y="18.98" textLength="9.3" class="ptg ptg-0"> </text>
		<rect x="399.2" y="0.75" fill="#252830" width="9.49" height="20.49"/>
		<text dy="-0.25em" x="399.2" y="18.98" textLength="9.3" class="ptg ptg-0"> </text>
		<rect x="408.5" y="0.75" fill="#252830" width="9.49" height="20.49"/>
		<text dy="-0.25em" x="408.5" y="18.98" textLength="9.3" class="ptg ptg-0"> </text>
		<rect x="417.8" y="0.75" fill="#252830" width="9.49" height="20.49"/>
		<text dy="-0.25em" x="417.8" y="18.98" textLength="9.3" class="ptg ptg-0"> </text>
		<rect x="427.1" y="0.75" fill="#252830" width="9.49" height="20.49"/>
		<text dy="-0.25em" x="427.1" y="18.98" textLength="9.3" class="ptg ptg-0"> </text>
		<rect x="436.4" y="0.75" fill="#252830" width="9.49" height="20.49"/>
		<text dy="-0.25em" x="436.4" y="18.98" textLength="9.3" class="ptg ptg-0"> </text>
		<rect x="445.7" y="0.75" fill="#252830" width="9.49" height="20.49"/>
		<text dy="-0.25em" x="445.7" y="18.98" textLength="9.3" class="ptg ptg-0"> </text>
		<rect x="455.0" y="0.75" fill="#252830" width="9.49" height="20.49"/>
		<text dy="-0.25em" x="455.0" y="18.98" textLength="9.3" class="ptg ptg-0"> </text>
		<rect x="464.3" y="0.75" fill="#252830" width="9.49" height="20.49"/>
		<text dy="-0.25em" x="464.3" y="18.98" textLength="9.3" class="ptg ptg-0"> </text>
		<rect x="473.6" y="0.75" fill="#252830" width="9.49" height="20.49"/>
		<text dy="-0.25em" x="473.6" y="18.98" textLength="9.3" class="ptg ptg-0"> </text>
		<rect x="482.9" y="0.75" fill="#252830" width="9.49" height="20.49"/>
		<text dy="-0.25em" x="482.9" y="18.98" textLength="9.3" class="ptg ptg-0"> </text>
		<rect x="492.2" y="0.75" fill="#252830" width="9.49" height="20.49"/>
		<text dy="-0.25em" x="492.2" y="18.98" textLength="9.3" class="ptg ptg-0"> </text>
		<rect x="501.5" y="0.75" fill="#252830" width="9.49" height="20.49"/>
		<text dy="-0.25em" x="501.5" y="18.98" textLength="9.3" class="ptg ptg-0"> </text>
		<rect x="510.8" y="0.75" fill="#252830" width="9.49" height="20.49"/>
		<text dy="-0.25em" x="510.8" y="18.98" textLength="9.3" class="ptg ptg-0"> </text>
		<rect x="520.1" y="0.75" fill="#252830" width="9.49" height="20.49"/>
		<text dy="-0.25em" x="520.1" y="18.98" textLength="9.3" class="ptg ptg-0"> </text>
		<rect x="529.4" y="0.75" fill="#252830" width="9.49" height="20.49"/>
		<text dy="-0.25em" x="529.4" y="18.98" textLength="9.3" class="ptg ptg-0"> </text>
		<rect x="538.7" y="0.75" fill="#252830" width="9.49" height="20.49"/>
		<text dy="-0.25em" x="538.7" y="18.98" textLength="9.3" class="ptg ptg-0"> </text>
		<rect x="548.0" y="0.75" fill="#252830" width="9.49" height="20.49"/>
		<text dy="-0.25em" x="548.0" y="18.98" textLength="9.3" class="ptg ptg-0"> </text>
		<rect x="557.3" y="0.75" fill="#252830" width="9.49" height="20.49"/>
		<text dy="-0.25em" x="557.3" y="18.98" textLength="9.3" class="ptg ptg-0"> </text>
		<rect x="566.6" y="0.75" fill="#252830" width="9.49" height="20.49"/>
		<text dy="-0.25em" x="566.6" y="18.98" textLength="9.3" class="ptg ptg-0"> </text>
		<rect x="575.9" y="0.75" fill="#252830" width="9.49" height="20.49"/>
		<text dy="-0.25em" x="575.9" y="18.98" textLength="9.3" class="ptg ptg-0"> </text>
		<rect x="585.2" y="0.75" fill="#252830" width="9.49" height="20.49"/>
		<text dy="-0.25em" x="585.2" y="18.98" textLength="9.3" class="ptg ptg-0"> </text>
		<rect x="594.5" y="0.75" fill="#252830" width="9.49" height="20.49"/>
		<text dy="-0.25em" x="594.5" y="18.98" textLength="9.3" class="ptg ptg-0"> </text>
		<rect x="603.8" y="0.75" fill="#252830" width="9.49" height="20.49"/>
		<text dy="-0.25em" x="603.8" y="18.98" textLength="9.3" class="ptg ptg-0"> </text>
		<rect x="613.1" y="0.75" fill="#252830" width="9.49" height="20.49"/>
		<text dy="-0.25em" x="613.1" y="18.98" textLength="9.3" class="ptg ptg-0"> </text>
		<rect x="622.4" y="0.75" fill="#252830" width="9.49" height="20.49"/>
		<text dy="-0.25em" x="622.4" y="18.98" textLength="9.3" class="ptg ptg-0"> </text>
		<rect x="631.7" y="0.75" fill="#252830" width="9.49" height="20.49"/>
		<text dy="-0.25em" x="631.7" y="18.98" textLength="9.3" class="ptg ptg-0"> </text>
		<rect x="641.0" y="0.75" fill="#252830" width="9.49" height="20.49"/>
		<text dy="-0.25em" x="641.0" y="18.98" textLength="9.3" class="ptg ptg-0"> </text>
		<rect x="650.3" y="0.75" fill="#252830" width="9.49" height="20.49"/>
		<text dy="-0.25em" x="650.3" y="18.98" textLength="9.3" class="ptg ptg-0"> </text>
		<rect x="659.6" y="0.75" fill="#252830" width="9.49" height="20.49"/>
		<text dy="-0.25em" x="659.6" y="18.98" textLength="9.3" class="ptg ptg-0"> </text>
		<rect x="668.9" y="0.75" fill="#252830" width="9.49" height="20.49"/>
		<text dy="-0.25em" x="668.9" y="18.98" textLength="9.3" class="ptg ptg-0"> </text>
		<rect x="678.2" y="0.75" fill="#252830" width="9.49" height="20.49"/>
		<text dy="-0.25em" x="678.2" y="18.98" textLength="9.3" class="ptg ptg-0"> </text>
		<rect x="687.5" y="0.75" fill="#252830" width="9.49" height="20.49"/>
		<text dy="-0.25em" x="687.5" y="18.98" textLength="9.3" class="ptg ptg-0"> </text>
		<rect x="696.8" y="0.75" fill="#252830" width="9.49" height="20.49"/>
		<text dy="-0.25em" x="696.8" y="18.98" textLength="9.3" class="ptg ptg-0"> </text>
		<rect x="706.1" y="0.75" fill="#252830" width="9.49" height="20.49"/>
		<text dy="-0.25em" x="706.1" y="18.98" textLength="9.3" class="ptg ptg-0"> </text>
		<rect x="715.4" y="0.75" fill="#252830" width="9.49" height="20.49"/>
		<text dy="-0.25em" x="715.4" y="18.98" textLength="9.3" class="ptg ptg-0"> </text>
		<rect x="724.7" y="0.75" fill="#252830" width="9.49" height="20.49"/>
		<text dy="-0.25em" x="724.7" y="18.98" textLength="9.3" class="ptg ptg-0"> </text>
		<rect x="734.0" y="0.75" fill="#252830" width="9.49" height="20.49"/>
		<text dy="-0.25em" x="734.0" y="18.98" textLength="9.3" class="ptg ptg-0"> </text>
		<rect x="743.3" y="0.75" fill="#252830" width="9.49" height="20.49"/>
		<text dy="-0.25em" x="743.3" y="18.98" textLength="9.3" class="ptg ptg-0"> </text>
		<rect x="752.6" y="0.75" fill="#252830" width="9.49" height="20.49"/>
		<text dy="-0.25em" x="752.6" y="18.98" textLength="9.3" class="ptg ptg-0"> </text>
		<rect x="761.9" y="0.75" fill="#252830" width="9.49" height="20.49"/>
		<text dy="-0.25em" x="761.9" y="18.98" textLength="9.3" class="ptg ptg-0"> </text>
		<rect x="771.2" y="0.75" fill="#3f4350" width="170.75" height="20.49"/>
		<text dy="-0.25em" x="771.2" y="18.98" textLength="167.4" class="ptg ptg-1"> ▶ (A)pplications </text>
		<rect x="938.6" y="0.75" fill="#252830" width="9.49" height="20.49"/>
		<text dy="-0.25em" x="938.6" y="18.98" textLength="9.3" class="ptg ptg-0"> </text>
		<rect x="-0.7" y="873.6" fill="#252830" width="9.49" height="20.49"/>
		<text dy="-0.25em" x="-0.7" y="891.83" textLength="9.3" class="ptg ptg-2"> </text>
		<rect x="8.6" y="873.6" fill="#3f4350" width="237.15" height="20.49"/>
		<text dy="-0.25em" x="8.6" y="891.83" textLength="232.5" class="ptg ptg-1">  CTRL_W - Close window  </text>
		<rect x="241.1" y="873.6" fill="#252830" width="9.49" height="20.49"/>
		<text dy="-0.25em" x="241.1" y="891.83" textLength="9.3" class="ptg ptg-2"> </text>
		<rect x="250.4" y="873.6" fill="#252830" width="9.49" height="20.49"/>
		<text dy="-0.25em" x="250.4" y="891.83" textLength="9.3" class="ptg ptg-2"> </text>
		<rect x="259.7" y="873.6" fill="#252830" width="9.49" height="20.49"/>
		<text dy="-0.25em" x="259.7" y="891.83" textLength="9.3" class="ptg ptg-2"> </text>
		<rect x="269.0" y="873.6" fill="#3f4350" width="189.72" height="20.49"/>
		<text dy="-0.25em" x="269.0" y="891.83" textLength="186.0" class="ptg ptg-1">  F12 - Screenshot  </text>
		<rect x="455.0" y="873.6" fill="#252830" width="9.49" height="20.49"/>
		<text dy="-0.25em" x="455.0" y="891.83" textLength="9.3" class="ptg ptg-2"> </text>
		<rect x="464.3" y="873.6" fill="#252830" width="9.49" height="20.49"/>
		<text dy="-0.25em" x="464.3" y="891.83" textLength="9.3" class="ptg ptg-2"> </text>
		<rect x="473.6" y="873.6" fill="#252830" width="9.49" height="20.49"/>
		<text dy="-0.25em" x="473.6" y="891.83" textLength="9.3" class="ptg ptg-2"> </text>
		<rect x="482.9" y="873.6" fill="#3f4350" width="246.64" height="20.49"/>
		<text dy="-0.25em" x="482.9" y="891.83" textLength="241.8" class="ptg ptg-1">  CTRL_F - Toggle layout  </text>
		<rect x="724.7" y="873.6" fill="#252830" width="9.49" height="20.49"/>
		<text dy="-0.25em" x="724.7" y="891.83" textLength="9.3" class="ptg ptg-2"> </text>
		<rect x="734.0" y="873.6" fill="#252830" width="9.49" height="20.49"/>
		<text dy="-0.25em" x="734.0" y="891.83" textLength="9.3" class="ptg ptg-2"> </text>
		<rect x="743.3" y="873.6" fill="#3f4350" width="189.72" height="20.49"/>
		<text dy="-0.25em" x="743.3" y="891.83" textLength="186.0" class="ptg ptg-1">  '!' - Re-palette  </text>
		<rect x="929.3" y="873.6" fill="#252830" width="9.49" height="20.49"/>
		<text dy="-0.25em" x="929.3" y="891.83" textLength="9.3" class="ptg ptg-2"> </text>
		<rect x="938.6" y="873.6" fill="#252830" width="9.49" height="20.49"/>
		<text dy="-0.25em" x="938.6" y="891.83" textLength="9.3" class="ptg ptg-2"> </text>
		<rect x="947.9" y="873.6" fill="#252830" width="9.49" height="20.49"/>
		<text dy="-0.25em" x="947.9" y="891.83" textLength="9.3" class="ptg ptg-2"> </text>
	</g>
</svg>